<mxfile host="app.diagrams.net" modified="2023-11-22T07:11:17.773Z" agent="Mozilla/5.0 (Windows NT 10.0; Win64; x64) AppleWebKit/537.36 (KHTML, like Gecko) Chrome/119.0.0.0 Safari/537.36" etag="If198yta7SUnlIyjpQqm" version="22.1.3" type="github">
  <diagram name="Page-1" id="2YBvvXClWsGukQMizWep">
    <mxGraphModel dx="2284" dy="1850" grid="1" gridSize="10" guides="1" tooltips="1" connect="1" arrows="1" fold="1" page="1" pageScale="1" pageWidth="850" pageHeight="1100" math="0" shadow="0">
      <root>
        <mxCell id="0" />
        <mxCell id="1" parent="0" />
        <mxCell id="43bpJHLOXwkWfMs68zJb-3" value="" style="endArrow=none;html=1;rounded=0;dashed=1;strokeWidth=3;strokeColor=#CCCCCC;" edge="1" parent="1" source="43bpJHLOXwkWfMs68zJb-27">
          <mxGeometry width="50" height="50" relative="1" as="geometry">
            <mxPoint x="200" y="680" as="sourcePoint" />
            <mxPoint x="200" y="40" as="targetPoint" />
          </mxGeometry>
        </mxCell>
        <mxCell id="43bpJHLOXwkWfMs68zJb-4" value="" style="endArrow=none;html=1;rounded=0;strokeWidth=3;strokeColor=#CCCCCC;" edge="1" parent="1" source="43bpJHLOXwkWfMs68zJb-17">
          <mxGeometry width="50" height="50" relative="1" as="geometry">
            <mxPoint x="320" y="680" as="sourcePoint" />
            <mxPoint x="320" y="40" as="targetPoint" />
          </mxGeometry>
        </mxCell>
        <mxCell id="43bpJHLOXwkWfMs68zJb-5" value="" style="endArrow=none;html=1;rounded=0;dashed=1;strokeWidth=3;strokeColor=#CCCCCC;" edge="1" parent="1" source="43bpJHLOXwkWfMs68zJb-61">
          <mxGeometry width="50" height="50" relative="1" as="geometry">
            <mxPoint x="440" y="680" as="sourcePoint" />
            <mxPoint x="440" y="40" as="targetPoint" />
          </mxGeometry>
        </mxCell>
        <mxCell id="43bpJHLOXwkWfMs68zJb-6" value="" style="endArrow=none;html=1;rounded=0;dashed=1;strokeWidth=3;strokeColor=#CCCCCC;" edge="1" parent="1" source="43bpJHLOXwkWfMs68zJb-145">
          <mxGeometry width="50" height="50" relative="1" as="geometry">
            <mxPoint x="560" y="1280" as="sourcePoint" />
            <mxPoint x="560" y="40" as="targetPoint" />
          </mxGeometry>
        </mxCell>
        <mxCell id="43bpJHLOXwkWfMs68zJb-7" value="" style="endArrow=none;html=1;rounded=0;strokeWidth=3;strokeColor=#CCCCCC;" edge="1" parent="1" source="43bpJHLOXwkWfMs68zJb-13">
          <mxGeometry width="50" height="50" relative="1" as="geometry">
            <mxPoint x="680" y="680" as="sourcePoint" />
            <mxPoint x="680" y="40" as="targetPoint" />
          </mxGeometry>
        </mxCell>
        <mxCell id="43bpJHLOXwkWfMs68zJb-8" value="master" style="text;html=1;strokeColor=none;fillColor=none;align=center;verticalAlign=middle;whiteSpace=wrap;rounded=0;fontStyle=1;fontSize=16;" vertex="1" parent="1">
          <mxGeometry x="650" y="10" width="60" height="30" as="geometry" />
        </mxCell>
        <mxCell id="43bpJHLOXwkWfMs68zJb-9" value="hotfixex" style="text;html=1;strokeColor=none;fillColor=none;align=center;verticalAlign=middle;whiteSpace=wrap;rounded=0;fontStyle=1;fontSize=16;" vertex="1" parent="1">
          <mxGeometry x="530" y="10" width="60" height="30" as="geometry" />
        </mxCell>
        <mxCell id="43bpJHLOXwkWfMs68zJb-10" value="release" style="text;html=1;strokeColor=none;fillColor=none;align=center;verticalAlign=middle;whiteSpace=wrap;rounded=0;fontStyle=1;fontSize=16;" vertex="1" parent="1">
          <mxGeometry x="410" y="10" width="60" height="30" as="geometry" />
        </mxCell>
        <mxCell id="43bpJHLOXwkWfMs68zJb-11" value="develop" style="text;html=1;strokeColor=none;fillColor=none;align=center;verticalAlign=middle;whiteSpace=wrap;rounded=0;fontStyle=1;fontSize=16;" vertex="1" parent="1">
          <mxGeometry x="290" y="10" width="60" height="30" as="geometry" />
        </mxCell>
        <mxCell id="43bpJHLOXwkWfMs68zJb-12" value="feature" style="text;html=1;strokeColor=none;fillColor=none;align=center;verticalAlign=middle;whiteSpace=wrap;rounded=0;fontStyle=1;fontSize=16;" vertex="1" parent="1">
          <mxGeometry x="90" y="-20" width="60" height="30" as="geometry" />
        </mxCell>
        <mxCell id="43bpJHLOXwkWfMs68zJb-14" value="" style="endArrow=none;html=1;rounded=0;strokeWidth=3;strokeColor=#CCCCCC;" edge="1" parent="1" source="43bpJHLOXwkWfMs68zJb-72" target="43bpJHLOXwkWfMs68zJb-13">
          <mxGeometry width="50" height="50" relative="1" as="geometry">
            <mxPoint x="680" y="680" as="sourcePoint" />
            <mxPoint x="680" y="40" as="targetPoint" />
          </mxGeometry>
        </mxCell>
        <mxCell id="43bpJHLOXwkWfMs68zJb-13" value="" style="ellipse;whiteSpace=wrap;html=1;aspect=fixed;strokeWidth=2;fillColor=#1ba1e2;fontColor=#ffffff;strokeColor=#006EAF;" vertex="1" parent="1">
          <mxGeometry x="670" y="70" width="20" height="20" as="geometry" />
        </mxCell>
        <mxCell id="43bpJHLOXwkWfMs68zJb-18" value="" style="endArrow=none;html=1;rounded=0;strokeWidth=3;strokeColor=#CCCCCC;" edge="1" parent="1" source="43bpJHLOXwkWfMs68zJb-59" target="43bpJHLOXwkWfMs68zJb-17">
          <mxGeometry width="50" height="50" relative="1" as="geometry">
            <mxPoint x="320" y="680" as="sourcePoint" />
            <mxPoint x="320" y="40" as="targetPoint" />
          </mxGeometry>
        </mxCell>
        <mxCell id="43bpJHLOXwkWfMs68zJb-17" value="" style="ellipse;whiteSpace=wrap;html=1;aspect=fixed;strokeWidth=2;fillColor=#fff2cc;strokeColor=#d6b656;gradientColor=#ffd966;" vertex="1" parent="1">
          <mxGeometry x="310" y="70" width="20" height="20" as="geometry" />
        </mxCell>
        <mxCell id="43bpJHLOXwkWfMs68zJb-19" value="" style="endArrow=classic;html=1;rounded=0;strokeWidth=3;" edge="1" parent="1" source="43bpJHLOXwkWfMs68zJb-13" target="43bpJHLOXwkWfMs68zJb-17">
          <mxGeometry relative="1" as="geometry">
            <mxPoint x="430" y="340" as="sourcePoint" />
            <mxPoint x="530" y="340" as="targetPoint" />
          </mxGeometry>
        </mxCell>
        <mxCell id="43bpJHLOXwkWfMs68zJb-20" value="初始化" style="edgeLabel;resizable=0;html=1;align=center;verticalAlign=middle;fontSize=14;" connectable="0" vertex="1" parent="43bpJHLOXwkWfMs68zJb-19">
          <mxGeometry relative="1" as="geometry" />
        </mxCell>
        <mxCell id="43bpJHLOXwkWfMs68zJb-25" value="Tag&lt;br&gt;1.0.0" style="shape=callout;whiteSpace=wrap;html=1;perimeter=calloutPerimeter;size=20;position=0.42;rotation=90;position2=0.5;rounded=1;base=10;horizontal=0;strokeWidth=2;fillColor=#E6E6E6;" vertex="1" parent="1">
          <mxGeometry x="725" y="30" width="60" height="100" as="geometry" />
        </mxCell>
        <mxCell id="43bpJHLOXwkWfMs68zJb-26" value="" style="endArrow=none;html=1;rounded=0;dashed=1;strokeWidth=3;strokeColor=#CCCCCC;" edge="1" parent="1" source="43bpJHLOXwkWfMs68zJb-88">
          <mxGeometry width="50" height="50" relative="1" as="geometry">
            <mxPoint x="120" y="1280" as="sourcePoint" />
            <mxPoint x="120" y="40" as="targetPoint" />
          </mxGeometry>
        </mxCell>
        <mxCell id="43bpJHLOXwkWfMs68zJb-30" value="" style="endArrow=none;html=1;rounded=0;dashed=1;strokeWidth=3;strokeColor=#CCCCCC;" edge="1" parent="1" source="43bpJHLOXwkWfMs68zJb-28" target="43bpJHLOXwkWfMs68zJb-27">
          <mxGeometry width="50" height="50" relative="1" as="geometry">
            <mxPoint x="200" y="732" as="sourcePoint" />
            <mxPoint x="200" y="92" as="targetPoint" />
          </mxGeometry>
        </mxCell>
        <mxCell id="43bpJHLOXwkWfMs68zJb-38" value="" style="edgeStyle=orthogonalEdgeStyle;rounded=0;orthogonalLoop=1;jettySize=auto;html=1;" edge="1" parent="1" source="43bpJHLOXwkWfMs68zJb-27" target="43bpJHLOXwkWfMs68zJb-28">
          <mxGeometry relative="1" as="geometry" />
        </mxCell>
        <mxCell id="43bpJHLOXwkWfMs68zJb-27" value="" style="ellipse;whiteSpace=wrap;html=1;aspect=fixed;strokeWidth=2;fillColor=#e6d0de;strokeColor=#996185;gradientColor=#d5739d;" vertex="1" parent="1">
          <mxGeometry x="190" y="152" width="20" height="20" as="geometry" />
        </mxCell>
        <mxCell id="43bpJHLOXwkWfMs68zJb-32" value="" style="endArrow=none;html=1;rounded=0;dashed=1;strokeWidth=3;strokeColor=#CCCCCC;" edge="1" parent="1" source="43bpJHLOXwkWfMs68zJb-85" target="43bpJHLOXwkWfMs68zJb-28">
          <mxGeometry width="50" height="50" relative="1" as="geometry">
            <mxPoint x="200" y="1280" as="sourcePoint" />
            <mxPoint x="200" y="120" as="targetPoint" />
          </mxGeometry>
        </mxCell>
        <mxCell id="43bpJHLOXwkWfMs68zJb-28" value="" style="ellipse;whiteSpace=wrap;html=1;aspect=fixed;strokeWidth=2;fillColor=#e6d0de;strokeColor=#996185;gradientColor=#d5739d;" vertex="1" parent="1">
          <mxGeometry x="190" y="202" width="20" height="20" as="geometry" />
        </mxCell>
        <mxCell id="43bpJHLOXwkWfMs68zJb-33" value="" style="endArrow=classic;html=1;rounded=0;strokeWidth=3;" edge="1" parent="1" source="43bpJHLOXwkWfMs68zJb-17" target="43bpJHLOXwkWfMs68zJb-27">
          <mxGeometry relative="1" as="geometry">
            <mxPoint x="320" y="130" as="sourcePoint" />
            <mxPoint x="-20" y="130" as="targetPoint" />
          </mxGeometry>
        </mxCell>
        <mxCell id="43bpJHLOXwkWfMs68zJb-34" value="开启" style="edgeLabel;resizable=0;html=1;align=center;verticalAlign=middle;fontSize=14;" connectable="0" vertex="1" parent="43bpJHLOXwkWfMs68zJb-33">
          <mxGeometry relative="1" as="geometry" />
        </mxCell>
        <mxCell id="43bpJHLOXwkWfMs68zJb-35" value="" style="endArrow=classic;html=1;rounded=0;strokeWidth=3;" edge="1" parent="1" source="43bpJHLOXwkWfMs68zJb-27" target="43bpJHLOXwkWfMs68zJb-28">
          <mxGeometry relative="1" as="geometry">
            <mxPoint x="170" y="192" as="sourcePoint" />
            <mxPoint x="100.3" y="187.62" as="targetPoint" />
          </mxGeometry>
        </mxCell>
        <mxCell id="43bpJHLOXwkWfMs68zJb-39" value="" style="endArrow=none;html=1;rounded=0;dashed=1;strokeWidth=3;strokeColor=#CCCCCC;" edge="1" source="43bpJHLOXwkWfMs68zJb-42" target="43bpJHLOXwkWfMs68zJb-41" parent="1">
          <mxGeometry width="50" height="50" relative="1" as="geometry">
            <mxPoint x="120" y="682" as="sourcePoint" />
            <mxPoint x="120" y="42" as="targetPoint" />
          </mxGeometry>
        </mxCell>
        <mxCell id="43bpJHLOXwkWfMs68zJb-40" value="" style="edgeStyle=orthogonalEdgeStyle;rounded=0;orthogonalLoop=1;jettySize=auto;html=1;" edge="1" source="43bpJHLOXwkWfMs68zJb-41" target="43bpJHLOXwkWfMs68zJb-42" parent="1">
          <mxGeometry relative="1" as="geometry" />
        </mxCell>
        <mxCell id="43bpJHLOXwkWfMs68zJb-41" value="" style="ellipse;whiteSpace=wrap;html=1;aspect=fixed;strokeWidth=2;fillColor=#e6d0de;strokeColor=#996185;gradientColor=#d5739d;" vertex="1" parent="1">
          <mxGeometry x="110" y="102" width="20" height="20" as="geometry" />
        </mxCell>
        <mxCell id="43bpJHLOXwkWfMs68zJb-42" value="" style="ellipse;whiteSpace=wrap;html=1;aspect=fixed;strokeWidth=2;fillColor=#e6d0de;strokeColor=#996185;gradientColor=#d5739d;" vertex="1" parent="1">
          <mxGeometry x="110" y="152" width="20" height="20" as="geometry" />
        </mxCell>
        <mxCell id="43bpJHLOXwkWfMs68zJb-43" value="" style="endArrow=classic;html=1;rounded=0;strokeWidth=3;" edge="1" source="43bpJHLOXwkWfMs68zJb-41" target="43bpJHLOXwkWfMs68zJb-42" parent="1">
          <mxGeometry relative="1" as="geometry">
            <mxPoint x="90" y="142" as="sourcePoint" />
            <mxPoint x="20.299999999999997" y="137.62" as="targetPoint" />
          </mxGeometry>
        </mxCell>
        <mxCell id="43bpJHLOXwkWfMs68zJb-44" value="" style="endArrow=classic;html=1;rounded=0;strokeWidth=3;" edge="1" parent="1" source="43bpJHLOXwkWfMs68zJb-17" target="43bpJHLOXwkWfMs68zJb-41">
          <mxGeometry relative="1" as="geometry">
            <mxPoint x="252" y="51.64" as="sourcePoint" />
            <mxPoint x="148" y="121.64" as="targetPoint" />
          </mxGeometry>
        </mxCell>
        <mxCell id="43bpJHLOXwkWfMs68zJb-45" value="开启" style="edgeLabel;resizable=0;html=1;align=center;verticalAlign=middle;fontSize=14;" connectable="0" vertex="1" parent="43bpJHLOXwkWfMs68zJb-44">
          <mxGeometry relative="1" as="geometry" />
        </mxCell>
        <mxCell id="43bpJHLOXwkWfMs68zJb-46" value="" style="endArrow=none;html=1;rounded=0;dashed=1;strokeWidth=3;strokeColor=#CCCCCC;" edge="1" source="43bpJHLOXwkWfMs68zJb-48" parent="1">
          <mxGeometry width="50" height="50" relative="1" as="geometry">
            <mxPoint x="120" y="732" as="sourcePoint" />
            <mxPoint x="120" y="172" as="targetPoint" />
          </mxGeometry>
        </mxCell>
        <mxCell id="43bpJHLOXwkWfMs68zJb-47" value="" style="edgeStyle=orthogonalEdgeStyle;rounded=0;orthogonalLoop=1;jettySize=auto;html=1;strokeWidth=3;" edge="1" target="43bpJHLOXwkWfMs68zJb-48" parent="1">
          <mxGeometry relative="1" as="geometry">
            <mxPoint x="120" y="172" as="sourcePoint" />
          </mxGeometry>
        </mxCell>
        <mxCell id="43bpJHLOXwkWfMs68zJb-48" value="" style="ellipse;whiteSpace=wrap;html=1;aspect=fixed;strokeWidth=2;fillColor=#e6d0de;strokeColor=#996185;gradientColor=#d5739d;" vertex="1" parent="1">
          <mxGeometry x="110" y="212" width="20" height="20" as="geometry" />
        </mxCell>
        <mxCell id="43bpJHLOXwkWfMs68zJb-51" value="" style="endArrow=classic;html=1;rounded=0;strokeWidth=3;" edge="1" parent="1" source="43bpJHLOXwkWfMs68zJb-28" target="43bpJHLOXwkWfMs68zJb-53">
          <mxGeometry relative="1" as="geometry">
            <mxPoint x="252" y="232.35" as="sourcePoint" />
            <mxPoint x="160" y="300" as="targetPoint" />
          </mxGeometry>
        </mxCell>
        <mxCell id="43bpJHLOXwkWfMs68zJb-52" value="PR" style="edgeLabel;resizable=0;html=1;align=center;verticalAlign=middle;fontSize=14;" connectable="0" vertex="1" parent="43bpJHLOXwkWfMs68zJb-51">
          <mxGeometry relative="1" as="geometry" />
        </mxCell>
        <mxCell id="43bpJHLOXwkWfMs68zJb-53" value="" style="ellipse;whiteSpace=wrap;html=1;aspect=fixed;strokeWidth=2;fillColor=#fff2cc;strokeColor=#d6b656;gradientColor=#ffd966;" vertex="1" parent="1">
          <mxGeometry x="310" y="249" width="20" height="20" as="geometry" />
        </mxCell>
        <mxCell id="43bpJHLOXwkWfMs68zJb-54" value="" style="endArrow=classic;html=1;rounded=0;strokeWidth=3;" edge="1" parent="1" source="43bpJHLOXwkWfMs68zJb-48" target="43bpJHLOXwkWfMs68zJb-59">
          <mxGeometry relative="1" as="geometry">
            <mxPoint x="130" y="242" as="sourcePoint" />
            <mxPoint x="232" y="300" as="targetPoint" />
          </mxGeometry>
        </mxCell>
        <mxCell id="43bpJHLOXwkWfMs68zJb-55" value="PR" style="edgeLabel;resizable=0;html=1;align=center;verticalAlign=middle;fontSize=14;" connectable="0" vertex="1" parent="43bpJHLOXwkWfMs68zJb-54">
          <mxGeometry relative="1" as="geometry" />
        </mxCell>
        <mxCell id="43bpJHLOXwkWfMs68zJb-60" value="" style="endArrow=none;html=1;rounded=0;strokeWidth=3;strokeColor=#CCCCCC;" edge="1" parent="1" source="43bpJHLOXwkWfMs68zJb-74" target="43bpJHLOXwkWfMs68zJb-59">
          <mxGeometry width="50" height="50" relative="1" as="geometry">
            <mxPoint x="320" y="680" as="sourcePoint" />
            <mxPoint x="320" y="90" as="targetPoint" />
          </mxGeometry>
        </mxCell>
        <mxCell id="43bpJHLOXwkWfMs68zJb-59" value="" style="ellipse;whiteSpace=wrap;html=1;aspect=fixed;strokeWidth=2;fillColor=#fff2cc;strokeColor=#d6b656;gradientColor=#ffd966;" vertex="1" parent="1">
          <mxGeometry x="310" y="300" width="20" height="20" as="geometry" />
        </mxCell>
        <mxCell id="43bpJHLOXwkWfMs68zJb-62" value="" style="endArrow=none;html=1;rounded=0;dashed=1;strokeWidth=3;strokeColor=#CCCCCC;" edge="1" parent="1" source="43bpJHLOXwkWfMs68zJb-116" target="43bpJHLOXwkWfMs68zJb-61">
          <mxGeometry width="50" height="50" relative="1" as="geometry">
            <mxPoint x="440" y="1280" as="sourcePoint" />
            <mxPoint x="440" y="40" as="targetPoint" />
          </mxGeometry>
        </mxCell>
        <mxCell id="43bpJHLOXwkWfMs68zJb-61" value="" style="ellipse;whiteSpace=wrap;html=1;aspect=fixed;strokeWidth=2;fillColor=#d5e8d4;strokeColor=#82b366;gradientColor=#97d077;" vertex="1" parent="1">
          <mxGeometry x="430" y="340" width="20" height="20" as="geometry" />
        </mxCell>
        <mxCell id="43bpJHLOXwkWfMs68zJb-63" value="" style="endArrow=classic;html=1;rounded=0;strokeWidth=3;" edge="1" parent="1" source="43bpJHLOXwkWfMs68zJb-59" target="43bpJHLOXwkWfMs68zJb-61">
          <mxGeometry relative="1" as="geometry">
            <mxPoint x="329.69" y="340.36" as="sourcePoint" />
            <mxPoint x="410" y="360" as="targetPoint" />
          </mxGeometry>
        </mxCell>
        <mxCell id="43bpJHLOXwkWfMs68zJb-64" value="PR" style="edgeLabel;resizable=0;html=1;align=center;verticalAlign=middle;fontSize=14;" connectable="0" vertex="1" parent="43bpJHLOXwkWfMs68zJb-63">
          <mxGeometry relative="1" as="geometry" />
        </mxCell>
        <mxCell id="43bpJHLOXwkWfMs68zJb-65" value="" style="ellipse;whiteSpace=wrap;html=1;aspect=fixed;strokeWidth=2;fillColor=#d5e8d4;strokeColor=#82b366;gradientColor=#97d077;" vertex="1" parent="1">
          <mxGeometry x="430" y="420" width="20" height="20" as="geometry" />
        </mxCell>
        <mxCell id="43bpJHLOXwkWfMs68zJb-66" value="" style="endArrow=classic;html=1;rounded=0;strokeWidth=3;entryX=0.5;entryY=0;entryDx=0;entryDy=0;" edge="1" parent="1" source="43bpJHLOXwkWfMs68zJb-61" target="43bpJHLOXwkWfMs68zJb-65">
          <mxGeometry relative="1" as="geometry">
            <mxPoint x="480.5" y="339.89" as="sourcePoint" />
            <mxPoint x="480" y="410" as="targetPoint" />
          </mxGeometry>
        </mxCell>
        <mxCell id="43bpJHLOXwkWfMs68zJb-67" value="修复Bug" style="edgeLabel;resizable=0;html=1;align=center;verticalAlign=middle;fontSize=14;" connectable="0" vertex="1" parent="43bpJHLOXwkWfMs68zJb-66">
          <mxGeometry relative="1" as="geometry">
            <mxPoint y="-6" as="offset" />
          </mxGeometry>
        </mxCell>
        <mxCell id="43bpJHLOXwkWfMs68zJb-69" value="" style="ellipse;whiteSpace=wrap;html=1;aspect=fixed;strokeWidth=2;fillColor=#d5e8d4;strokeColor=#82b366;gradientColor=#97d077;" vertex="1" parent="1">
          <mxGeometry x="430" y="500" width="20" height="20" as="geometry" />
        </mxCell>
        <mxCell id="43bpJHLOXwkWfMs68zJb-70" value="" style="endArrow=classic;html=1;rounded=0;strokeWidth=3;entryX=0.5;entryY=0;entryDx=0;entryDy=0;" edge="1" parent="1" target="43bpJHLOXwkWfMs68zJb-69">
          <mxGeometry relative="1" as="geometry">
            <mxPoint x="440" y="440" as="sourcePoint" />
            <mxPoint x="480" y="490" as="targetPoint" />
          </mxGeometry>
        </mxCell>
        <mxCell id="43bpJHLOXwkWfMs68zJb-71" value="修复Bug" style="edgeLabel;resizable=0;html=1;align=center;verticalAlign=middle;fontSize=14;" connectable="0" vertex="1" parent="43bpJHLOXwkWfMs68zJb-70">
          <mxGeometry relative="1" as="geometry">
            <mxPoint y="-6" as="offset" />
          </mxGeometry>
        </mxCell>
        <mxCell id="43bpJHLOXwkWfMs68zJb-73" value="" style="endArrow=none;html=1;rounded=0;strokeWidth=3;strokeColor=#CCCCCC;" edge="1" parent="1" source="43bpJHLOXwkWfMs68zJb-124" target="43bpJHLOXwkWfMs68zJb-72">
          <mxGeometry width="50" height="50" relative="1" as="geometry">
            <mxPoint x="680" y="1280" as="sourcePoint" />
            <mxPoint x="680" y="90" as="targetPoint" />
          </mxGeometry>
        </mxCell>
        <mxCell id="43bpJHLOXwkWfMs68zJb-75" value="" style="endArrow=none;html=1;rounded=0;strokeWidth=3;strokeColor=#CCCCCC;" edge="1" parent="1" target="43bpJHLOXwkWfMs68zJb-74">
          <mxGeometry width="50" height="50" relative="1" as="geometry">
            <mxPoint x="320" y="860" as="sourcePoint" />
            <mxPoint x="320" y="320" as="targetPoint" />
          </mxGeometry>
        </mxCell>
        <mxCell id="43bpJHLOXwkWfMs68zJb-74" value="" style="ellipse;whiteSpace=wrap;html=1;aspect=fixed;strokeWidth=2;fillColor=#fff2cc;strokeColor=#d6b656;gradientColor=#ffd966;" vertex="1" parent="1">
          <mxGeometry x="310" y="560" width="20" height="20" as="geometry" />
        </mxCell>
        <mxCell id="43bpJHLOXwkWfMs68zJb-76" value="" style="endArrow=classic;html=1;rounded=0;strokeWidth=3;" edge="1" parent="1" source="43bpJHLOXwkWfMs68zJb-69" target="43bpJHLOXwkWfMs68zJb-72">
          <mxGeometry relative="1" as="geometry">
            <mxPoint x="480.5" y="515.89" as="sourcePoint" />
            <mxPoint x="581.5" y="549.89" as="targetPoint" />
          </mxGeometry>
        </mxCell>
        <mxCell id="43bpJHLOXwkWfMs68zJb-77" value="PR" style="edgeLabel;resizable=0;html=1;align=center;verticalAlign=middle;fontSize=14;" connectable="0" vertex="1" parent="43bpJHLOXwkWfMs68zJb-76">
          <mxGeometry relative="1" as="geometry" />
        </mxCell>
        <mxCell id="43bpJHLOXwkWfMs68zJb-78" value="" style="endArrow=classic;html=1;rounded=0;strokeWidth=3;" edge="1" parent="1" source="43bpJHLOXwkWfMs68zJb-69" target="43bpJHLOXwkWfMs68zJb-74">
          <mxGeometry relative="1" as="geometry">
            <mxPoint x="420.29" y="542.01" as="sourcePoint" />
            <mxPoint x="640.29" y="598.01" as="targetPoint" />
          </mxGeometry>
        </mxCell>
        <mxCell id="43bpJHLOXwkWfMs68zJb-79" value="PR" style="edgeLabel;resizable=0;html=1;align=center;verticalAlign=middle;fontSize=14;" connectable="0" vertex="1" parent="43bpJHLOXwkWfMs68zJb-78">
          <mxGeometry relative="1" as="geometry" />
        </mxCell>
        <mxCell id="43bpJHLOXwkWfMs68zJb-80" value="Tag&lt;br&gt;1.1.0" style="shape=callout;whiteSpace=wrap;html=1;perimeter=calloutPerimeter;size=20;position=0.42;rotation=90;position2=0.5;rounded=1;base=10;horizontal=0;strokeWidth=2;fillColor=#E6E6E6;" vertex="1" parent="1">
          <mxGeometry x="720" y="520" width="60" height="100" as="geometry" />
        </mxCell>
        <mxCell id="43bpJHLOXwkWfMs68zJb-81" value="" style="endArrow=none;html=1;rounded=0;dashed=1;strokeWidth=3;strokeColor=#CCCCCC;" edge="1" parent="1" source="43bpJHLOXwkWfMs68zJb-130">
          <mxGeometry width="50" height="50" relative="1" as="geometry">
            <mxPoint x="40" y="1282" as="sourcePoint" />
            <mxPoint x="40" y="42" as="targetPoint" />
          </mxGeometry>
        </mxCell>
        <mxCell id="43bpJHLOXwkWfMs68zJb-82" value="1.1.0&lt;br&gt;功能研发" style="shape=callout;whiteSpace=wrap;html=1;perimeter=calloutPerimeter;size=20;position=0.42;rotation=0;position2=0.5;rounded=1;base=10;horizontal=1;strokeWidth=2;direction=north;fillColor=#E6E6E6;" vertex="1" parent="1">
          <mxGeometry x="-6" y="84" width="108" height="60" as="geometry" />
        </mxCell>
        <mxCell id="43bpJHLOXwkWfMs68zJb-86" value="" style="endArrow=none;html=1;rounded=0;dashed=1;strokeWidth=3;strokeColor=#CCCCCC;" edge="1" parent="1" source="43bpJHLOXwkWfMs68zJb-101" target="43bpJHLOXwkWfMs68zJb-85">
          <mxGeometry width="50" height="50" relative="1" as="geometry">
            <mxPoint x="200" y="1280" as="sourcePoint" />
            <mxPoint x="200" y="222" as="targetPoint" />
          </mxGeometry>
        </mxCell>
        <mxCell id="43bpJHLOXwkWfMs68zJb-85" value="" style="ellipse;whiteSpace=wrap;html=1;aspect=fixed;strokeWidth=2;fillColor=#e6d0de;strokeColor=#996185;gradientColor=#d5739d;" vertex="1" parent="1">
          <mxGeometry x="190" y="646" width="20" height="20" as="geometry" />
        </mxCell>
        <mxCell id="43bpJHLOXwkWfMs68zJb-87" value="" style="ellipse;whiteSpace=wrap;html=1;aspect=fixed;strokeWidth=2;fillColor=#e6d0de;strokeColor=#996185;gradientColor=#d5739d;" vertex="1" parent="1">
          <mxGeometry x="30" y="610" width="20" height="20" as="geometry" />
        </mxCell>
        <mxCell id="43bpJHLOXwkWfMs68zJb-90" value="" style="endArrow=none;html=1;rounded=0;dashed=1;strokeWidth=3;strokeColor=#CCCCCC;" edge="1" parent="1" source="43bpJHLOXwkWfMs68zJb-102" target="43bpJHLOXwkWfMs68zJb-88">
          <mxGeometry width="50" height="50" relative="1" as="geometry">
            <mxPoint x="120" y="1280" as="sourcePoint" />
            <mxPoint x="120" y="40" as="targetPoint" />
          </mxGeometry>
        </mxCell>
        <mxCell id="43bpJHLOXwkWfMs68zJb-91" value="" style="endArrow=classic;html=1;rounded=0;strokeWidth=3;" edge="1" parent="1" source="43bpJHLOXwkWfMs68zJb-74" target="43bpJHLOXwkWfMs68zJb-87">
          <mxGeometry relative="1" as="geometry">
            <mxPoint x="290.13" y="480.44" as="sourcePoint" />
            <mxPoint x="110.13" y="508.44" as="targetPoint" />
          </mxGeometry>
        </mxCell>
        <mxCell id="43bpJHLOXwkWfMs68zJb-92" value="开启" style="edgeLabel;resizable=0;html=1;align=center;verticalAlign=middle;fontSize=14;" connectable="0" vertex="1" parent="43bpJHLOXwkWfMs68zJb-91">
          <mxGeometry relative="1" as="geometry" />
        </mxCell>
        <mxCell id="43bpJHLOXwkWfMs68zJb-93" value="" style="endArrow=classic;html=1;rounded=0;strokeWidth=3;" edge="1" parent="1" source="43bpJHLOXwkWfMs68zJb-74" target="43bpJHLOXwkWfMs68zJb-88">
          <mxGeometry relative="1" as="geometry">
            <mxPoint x="290" y="510" as="sourcePoint" />
            <mxPoint x="110" y="538" as="targetPoint" />
          </mxGeometry>
        </mxCell>
        <mxCell id="43bpJHLOXwkWfMs68zJb-94" value="开启" style="edgeLabel;resizable=0;html=1;align=center;verticalAlign=middle;fontSize=14;" connectable="0" vertex="1" parent="43bpJHLOXwkWfMs68zJb-93">
          <mxGeometry relative="1" as="geometry" />
        </mxCell>
        <mxCell id="43bpJHLOXwkWfMs68zJb-95" value="" style="endArrow=classic;html=1;rounded=0;strokeWidth=3;" edge="1" parent="1" source="43bpJHLOXwkWfMs68zJb-74" target="43bpJHLOXwkWfMs68zJb-85">
          <mxGeometry relative="1" as="geometry">
            <mxPoint x="280" y="570" as="sourcePoint" />
            <mxPoint x="110" y="564" as="targetPoint" />
          </mxGeometry>
        </mxCell>
        <mxCell id="43bpJHLOXwkWfMs68zJb-96" value="开启" style="edgeLabel;resizable=0;html=1;align=center;verticalAlign=middle;fontSize=14;" connectable="0" vertex="1" parent="43bpJHLOXwkWfMs68zJb-95">
          <mxGeometry relative="1" as="geometry" />
        </mxCell>
        <mxCell id="43bpJHLOXwkWfMs68zJb-98" value="1.2.0&lt;br&gt;功能研发" style="shape=callout;whiteSpace=wrap;html=1;perimeter=calloutPerimeter;size=20;position=0.42;rotation=0;position2=0.5;rounded=1;base=10;horizontal=1;strokeWidth=2;direction=north;fillColor=#E6E6E6;" vertex="1" parent="1">
          <mxGeometry x="-90" y="590" width="108" height="60" as="geometry" />
        </mxCell>
        <mxCell id="43bpJHLOXwkWfMs68zJb-104" value="" style="endArrow=none;html=1;rounded=0;dashed=1;strokeWidth=3;strokeColor=#CCCCCC;" edge="1" parent="1" target="43bpJHLOXwkWfMs68zJb-101">
          <mxGeometry width="50" height="50" relative="1" as="geometry">
            <mxPoint x="200" y="1360" as="sourcePoint" />
            <mxPoint x="200" y="666" as="targetPoint" />
          </mxGeometry>
        </mxCell>
        <mxCell id="43bpJHLOXwkWfMs68zJb-105" value="" style="endArrow=none;html=1;rounded=0;dashed=1;strokeWidth=3;strokeColor=#CCCCCC;" edge="1" parent="1" target="43bpJHLOXwkWfMs68zJb-102">
          <mxGeometry width="50" height="50" relative="1" as="geometry">
            <mxPoint x="120" y="1360" as="sourcePoint" />
            <mxPoint x="120" y="650" as="targetPoint" />
          </mxGeometry>
        </mxCell>
        <mxCell id="43bpJHLOXwkWfMs68zJb-106" value="" style="edgeStyle=orthogonalEdgeStyle;rounded=0;orthogonalLoop=1;jettySize=auto;html=1;strokeWidth=3;" edge="1" parent="1" source="43bpJHLOXwkWfMs68zJb-85" target="43bpJHLOXwkWfMs68zJb-101">
          <mxGeometry relative="1" as="geometry">
            <mxPoint x="250" y="720" as="sourcePoint" />
            <mxPoint x="250" y="784" as="targetPoint" />
          </mxGeometry>
        </mxCell>
        <mxCell id="43bpJHLOXwkWfMs68zJb-107" value="" style="edgeStyle=orthogonalEdgeStyle;rounded=0;orthogonalLoop=1;jettySize=auto;html=1;strokeWidth=3;exitX=0.5;exitY=0.5;exitDx=0;exitDy=0;exitPerimeter=0;" edge="1" parent="1" source="43bpJHLOXwkWfMs68zJb-88" target="43bpJHLOXwkWfMs68zJb-102">
          <mxGeometry relative="1" as="geometry">
            <mxPoint x="159.5" y="726" as="sourcePoint" />
            <mxPoint x="159.5" y="790" as="targetPoint" />
          </mxGeometry>
        </mxCell>
        <mxCell id="43bpJHLOXwkWfMs68zJb-100" value="1.1.1&lt;br&gt;功能研发" style="shape=callout;whiteSpace=wrap;html=1;perimeter=calloutPerimeter;size=20;position=0.67;rotation=0;position2=0.5;rounded=1;base=10;horizontal=1;strokeWidth=2;direction=west;fillColor=#E6E6E6;" vertex="1" parent="1">
          <mxGeometry x="70" y="660" width="60" height="88" as="geometry" />
        </mxCell>
        <mxCell id="43bpJHLOXwkWfMs68zJb-109" value="" style="endArrow=none;html=1;rounded=0;strokeWidth=3;strokeColor=#CCCCCC;" edge="1" parent="1" source="43bpJHLOXwkWfMs68zJb-139" target="43bpJHLOXwkWfMs68zJb-108">
          <mxGeometry width="50" height="50" relative="1" as="geometry">
            <mxPoint x="320" y="1280" as="sourcePoint" />
            <mxPoint x="320" y="580" as="targetPoint" />
          </mxGeometry>
        </mxCell>
        <mxCell id="43bpJHLOXwkWfMs68zJb-108" value="" style="ellipse;whiteSpace=wrap;html=1;aspect=fixed;strokeWidth=2;fillColor=#fff2cc;strokeColor=#d6b656;gradientColor=#ffd966;" vertex="1" parent="1">
          <mxGeometry x="310" y="860" width="20" height="20" as="geometry" />
        </mxCell>
        <mxCell id="43bpJHLOXwkWfMs68zJb-110" value="" style="endArrow=classic;html=1;rounded=0;strokeWidth=3;exitX=0.5;exitY=0.5;exitDx=0;exitDy=0;exitPerimeter=0;entryX=0;entryY=0.5;entryDx=0;entryDy=0;" edge="1" parent="1" source="43bpJHLOXwkWfMs68zJb-102" target="43bpJHLOXwkWfMs68zJb-115">
          <mxGeometry relative="1" as="geometry">
            <mxPoint x="170.5" y="719.89" as="sourcePoint" />
            <mxPoint x="290" y="800" as="targetPoint" />
          </mxGeometry>
        </mxCell>
        <mxCell id="43bpJHLOXwkWfMs68zJb-111" value="PR" style="edgeLabel;resizable=0;html=1;align=center;verticalAlign=middle;fontSize=14;" connectable="0" vertex="1" parent="43bpJHLOXwkWfMs68zJb-110">
          <mxGeometry relative="1" as="geometry" />
        </mxCell>
        <mxCell id="43bpJHLOXwkWfMs68zJb-112" value="" style="endArrow=classic;html=1;rounded=0;strokeWidth=3;exitX=0.5;exitY=0.4;exitDx=0;exitDy=0;exitPerimeter=0;" edge="1" parent="1" source="43bpJHLOXwkWfMs68zJb-101" target="43bpJHLOXwkWfMs68zJb-108">
          <mxGeometry relative="1" as="geometry">
            <mxPoint x="230" y="870" as="sourcePoint" />
            <mxPoint x="270" y="870" as="targetPoint" />
          </mxGeometry>
        </mxCell>
        <mxCell id="43bpJHLOXwkWfMs68zJb-113" value="PR" style="edgeLabel;resizable=0;html=1;align=center;verticalAlign=middle;fontSize=14;" connectable="0" vertex="1" parent="43bpJHLOXwkWfMs68zJb-112">
          <mxGeometry relative="1" as="geometry" />
        </mxCell>
        <mxCell id="43bpJHLOXwkWfMs68zJb-101" value="" style="ellipse;whiteSpace=wrap;html=1;aspect=fixed;strokeWidth=2;fillColor=#e6d0de;strokeColor=#996185;gradientColor=#d5739d;" vertex="1" parent="1">
          <mxGeometry x="190" y="830" width="20" height="20" as="geometry" />
        </mxCell>
        <mxCell id="43bpJHLOXwkWfMs68zJb-88" value="" style="ellipse;whiteSpace=wrap;html=1;aspect=fixed;strokeWidth=2;fillColor=#e6d0de;strokeColor=#996185;gradientColor=#d5739d;" vertex="1" parent="1">
          <mxGeometry x="110" y="630" width="20" height="20" as="geometry" />
        </mxCell>
        <mxCell id="43bpJHLOXwkWfMs68zJb-115" value="" style="ellipse;whiteSpace=wrap;html=1;aspect=fixed;strokeWidth=2;fillColor=#fff2cc;strokeColor=#d6b656;gradientColor=#ffd966;" vertex="1" parent="1">
          <mxGeometry x="310" y="800" width="20" height="20" as="geometry" />
        </mxCell>
        <mxCell id="43bpJHLOXwkWfMs68zJb-102" value="" style="ellipse;whiteSpace=wrap;html=1;aspect=fixed;strokeWidth=2;fillColor=#e6d0de;strokeColor=#996185;gradientColor=#d5739d;" vertex="1" parent="1">
          <mxGeometry x="110" y="770" width="20" height="20" as="geometry" />
        </mxCell>
        <mxCell id="43bpJHLOXwkWfMs68zJb-117" value="" style="endArrow=none;html=1;rounded=0;dashed=1;strokeWidth=3;strokeColor=#CCCCCC;" edge="1" parent="1" source="43bpJHLOXwkWfMs68zJb-156" target="43bpJHLOXwkWfMs68zJb-116">
          <mxGeometry width="50" height="50" relative="1" as="geometry">
            <mxPoint x="440" y="1280" as="sourcePoint" />
            <mxPoint x="440" y="360" as="targetPoint" />
          </mxGeometry>
        </mxCell>
        <mxCell id="43bpJHLOXwkWfMs68zJb-116" value="" style="ellipse;whiteSpace=wrap;html=1;aspect=fixed;strokeWidth=2;fillColor=#d5e8d4;strokeColor=#82b366;gradientColor=#97d077;" vertex="1" parent="1">
          <mxGeometry x="430" y="885" width="20" height="20" as="geometry" />
        </mxCell>
        <mxCell id="43bpJHLOXwkWfMs68zJb-118" value="" style="endArrow=classic;html=1;rounded=0;strokeWidth=3;" edge="1" parent="1" source="43bpJHLOXwkWfMs68zJb-108" target="43bpJHLOXwkWfMs68zJb-116">
          <mxGeometry relative="1" as="geometry">
            <mxPoint x="380" y="880" as="sourcePoint" />
            <mxPoint x="490" y="909" as="targetPoint" />
          </mxGeometry>
        </mxCell>
        <mxCell id="43bpJHLOXwkWfMs68zJb-119" value="PR" style="edgeLabel;resizable=0;html=1;align=center;verticalAlign=middle;fontSize=14;" connectable="0" vertex="1" parent="43bpJHLOXwkWfMs68zJb-118">
          <mxGeometry relative="1" as="geometry" />
        </mxCell>
        <mxCell id="43bpJHLOXwkWfMs68zJb-120" value="" style="endArrow=classic;html=1;rounded=0;strokeWidth=3;exitX=0.5;exitY=1;exitDx=0;exitDy=0;" edge="1" target="43bpJHLOXwkWfMs68zJb-156" parent="1" source="43bpJHLOXwkWfMs68zJb-116">
          <mxGeometry relative="1" as="geometry">
            <mxPoint x="440" y="940" as="sourcePoint" />
            <mxPoint x="440" y="940" as="targetPoint" />
          </mxGeometry>
        </mxCell>
        <mxCell id="43bpJHLOXwkWfMs68zJb-121" value="修复Bug" style="edgeLabel;resizable=0;html=1;align=center;verticalAlign=middle;fontSize=14;" connectable="0" vertex="1" parent="43bpJHLOXwkWfMs68zJb-120">
          <mxGeometry relative="1" as="geometry">
            <mxPoint y="-6" as="offset" />
          </mxGeometry>
        </mxCell>
        <mxCell id="43bpJHLOXwkWfMs68zJb-122" value="" style="ellipse;whiteSpace=wrap;html=1;aspect=fixed;strokeWidth=2;fillColor=#d5e8d4;strokeColor=#82b366;gradientColor=#97d077;" vertex="1" parent="1">
          <mxGeometry x="430" y="1084" width="20" height="20" as="geometry" />
        </mxCell>
        <mxCell id="43bpJHLOXwkWfMs68zJb-123" value="" style="ellipse;whiteSpace=wrap;html=1;aspect=fixed;strokeWidth=2;fillColor=#fff2cc;strokeColor=#d6b656;gradientColor=#ffd966;" vertex="1" parent="1">
          <mxGeometry x="310" y="1134" width="20" height="20" as="geometry" />
        </mxCell>
        <mxCell id="43bpJHLOXwkWfMs68zJb-125" value="" style="endArrow=none;html=1;rounded=0;strokeWidth=3;strokeColor=#CCCCCC;" edge="1" parent="1" target="43bpJHLOXwkWfMs68zJb-124">
          <mxGeometry width="50" height="50" relative="1" as="geometry">
            <mxPoint x="680" y="1360" as="sourcePoint" />
            <mxPoint x="680" y="610" as="targetPoint" />
          </mxGeometry>
        </mxCell>
        <mxCell id="43bpJHLOXwkWfMs68zJb-124" value="" style="ellipse;whiteSpace=wrap;html=1;aspect=fixed;strokeWidth=2;fillColor=#1ba1e2;fontColor=#ffffff;strokeColor=#006EAF;" vertex="1" parent="1">
          <mxGeometry x="670" y="1134" width="20" height="20" as="geometry" />
        </mxCell>
        <mxCell id="43bpJHLOXwkWfMs68zJb-126" value="" style="endArrow=classic;html=1;rounded=0;strokeWidth=3;" edge="1" parent="1" source="43bpJHLOXwkWfMs68zJb-122" target="43bpJHLOXwkWfMs68zJb-124">
          <mxGeometry relative="1" as="geometry">
            <mxPoint x="460.29" y="1066.01" as="sourcePoint" />
            <mxPoint x="680.29" y="1122.01" as="targetPoint" />
          </mxGeometry>
        </mxCell>
        <mxCell id="43bpJHLOXwkWfMs68zJb-127" value="PR" style="edgeLabel;resizable=0;html=1;align=center;verticalAlign=middle;fontSize=14;" connectable="0" vertex="1" parent="43bpJHLOXwkWfMs68zJb-126">
          <mxGeometry relative="1" as="geometry" />
        </mxCell>
        <mxCell id="43bpJHLOXwkWfMs68zJb-128" value="" style="endArrow=classic;html=1;rounded=0;strokeWidth=3;" edge="1" parent="1" source="43bpJHLOXwkWfMs68zJb-122" target="43bpJHLOXwkWfMs68zJb-123">
          <mxGeometry relative="1" as="geometry">
            <mxPoint x="410" y="1094" as="sourcePoint" />
            <mxPoint x="350" y="1124" as="targetPoint" />
          </mxGeometry>
        </mxCell>
        <mxCell id="43bpJHLOXwkWfMs68zJb-129" value="PR" style="edgeLabel;resizable=0;html=1;align=center;verticalAlign=middle;fontSize=14;" connectable="0" vertex="1" parent="43bpJHLOXwkWfMs68zJb-128">
          <mxGeometry relative="1" as="geometry" />
        </mxCell>
        <mxCell id="43bpJHLOXwkWfMs68zJb-133" value="" style="endArrow=none;html=1;rounded=0;dashed=1;strokeWidth=3;strokeColor=#CCCCCC;" edge="1" parent="1" source="43bpJHLOXwkWfMs68zJb-131" target="43bpJHLOXwkWfMs68zJb-130">
          <mxGeometry width="50" height="50" relative="1" as="geometry">
            <mxPoint x="40" y="1282" as="sourcePoint" />
            <mxPoint x="40" y="42" as="targetPoint" />
          </mxGeometry>
        </mxCell>
        <mxCell id="43bpJHLOXwkWfMs68zJb-130" value="" style="ellipse;whiteSpace=wrap;html=1;aspect=fixed;strokeWidth=2;fillColor=#e6d0de;strokeColor=#996185;gradientColor=#d5739d;" vertex="1" parent="1">
          <mxGeometry x="30" y="940" width="20" height="20" as="geometry" />
        </mxCell>
        <mxCell id="43bpJHLOXwkWfMs68zJb-134" value="" style="endArrow=none;html=1;rounded=0;dashed=1;strokeWidth=3;strokeColor=#CCCCCC;" edge="1" parent="1" target="43bpJHLOXwkWfMs68zJb-131">
          <mxGeometry width="50" height="50" relative="1" as="geometry">
            <mxPoint x="40" y="1360" as="sourcePoint" />
            <mxPoint x="40" y="990" as="targetPoint" />
          </mxGeometry>
        </mxCell>
        <mxCell id="43bpJHLOXwkWfMs68zJb-135" value="" style="edgeStyle=orthogonalEdgeStyle;rounded=0;orthogonalLoop=1;jettySize=auto;html=1;strokeWidth=3;" edge="1" parent="1" source="43bpJHLOXwkWfMs68zJb-87" target="43bpJHLOXwkWfMs68zJb-130">
          <mxGeometry relative="1" as="geometry">
            <mxPoint x="10" y="680" as="sourcePoint" />
            <mxPoint x="10" y="844" as="targetPoint" />
          </mxGeometry>
        </mxCell>
        <mxCell id="43bpJHLOXwkWfMs68zJb-136" value="" style="edgeStyle=orthogonalEdgeStyle;rounded=0;orthogonalLoop=1;jettySize=auto;html=1;strokeWidth=3;entryX=0.5;entryY=0;entryDx=0;entryDy=0;" edge="1" parent="1" source="43bpJHLOXwkWfMs68zJb-130" target="43bpJHLOXwkWfMs68zJb-170">
          <mxGeometry relative="1" as="geometry">
            <mxPoint x="70" y="850" as="sourcePoint" />
            <mxPoint x="40" y="1010" as="targetPoint" />
          </mxGeometry>
        </mxCell>
        <mxCell id="43bpJHLOXwkWfMs68zJb-137" value="" style="endArrow=classic;html=1;rounded=0;strokeWidth=3;" edge="1" parent="1" source="43bpJHLOXwkWfMs68zJb-122" target="43bpJHLOXwkWfMs68zJb-131">
          <mxGeometry relative="1" as="geometry">
            <mxPoint x="171.76999999999998" y="1142.14" as="sourcePoint" />
            <mxPoint x="69.76999999999998" y="1184.14" as="targetPoint" />
          </mxGeometry>
        </mxCell>
        <mxCell id="43bpJHLOXwkWfMs68zJb-138" value="PR" style="edgeLabel;resizable=0;html=1;align=center;verticalAlign=middle;fontSize=14;" connectable="0" vertex="1" parent="43bpJHLOXwkWfMs68zJb-137">
          <mxGeometry relative="1" as="geometry" />
        </mxCell>
        <mxCell id="43bpJHLOXwkWfMs68zJb-140" value="" style="endArrow=none;html=1;rounded=0;strokeWidth=3;strokeColor=#CCCCCC;" edge="1" parent="1" target="43bpJHLOXwkWfMs68zJb-139">
          <mxGeometry width="50" height="50" relative="1" as="geometry">
            <mxPoint x="320" y="1360" as="sourcePoint" />
            <mxPoint x="320" y="910" as="targetPoint" />
          </mxGeometry>
        </mxCell>
        <mxCell id="43bpJHLOXwkWfMs68zJb-139" value="" style="ellipse;whiteSpace=wrap;html=1;aspect=fixed;strokeWidth=2;fillColor=#fff2cc;strokeColor=#d6b656;gradientColor=#ffd966;" vertex="1" parent="1">
          <mxGeometry x="310" y="1244" width="20" height="20" as="geometry" />
        </mxCell>
        <mxCell id="43bpJHLOXwkWfMs68zJb-141" value="" style="endArrow=classic;html=1;rounded=0;strokeWidth=3;exitX=0.5;exitY=0.5;exitDx=0;exitDy=0;exitPerimeter=0;" edge="1" parent="1" source="43bpJHLOXwkWfMs68zJb-131" target="43bpJHLOXwkWfMs68zJb-139">
          <mxGeometry relative="1" as="geometry">
            <mxPoint x="65" y="1164" as="sourcePoint" />
            <mxPoint x="255" y="1194" as="targetPoint" />
          </mxGeometry>
        </mxCell>
        <mxCell id="43bpJHLOXwkWfMs68zJb-142" value="PR" style="edgeLabel;resizable=0;html=1;align=center;verticalAlign=middle;fontSize=14;" connectable="0" vertex="1" parent="43bpJHLOXwkWfMs68zJb-141">
          <mxGeometry relative="1" as="geometry" />
        </mxCell>
        <mxCell id="43bpJHLOXwkWfMs68zJb-131" value="" style="ellipse;whiteSpace=wrap;html=1;aspect=fixed;strokeWidth=2;fillColor=#e6d0de;strokeColor=#996185;gradientColor=#d5739d;" vertex="1" parent="1">
          <mxGeometry x="30" y="1134" width="20" height="20" as="geometry" />
        </mxCell>
        <mxCell id="43bpJHLOXwkWfMs68zJb-143" value="release&lt;br&gt;1.1.1完成后才能提此PR" style="shape=callout;whiteSpace=wrap;html=1;perimeter=calloutPerimeter;size=18;position=0.23;rotation=0;position2=0.5;rounded=1;base=9;horizontal=1;strokeWidth=2;direction=north;fillColor=#E6E6E6;" vertex="1" parent="1">
          <mxGeometry x="45" y="1183" width="108" height="60" as="geometry" />
        </mxCell>
        <mxCell id="43bpJHLOXwkWfMs68zJb-144" value="Tag&lt;br&gt;1.1.1" style="shape=callout;whiteSpace=wrap;html=1;perimeter=calloutPerimeter;size=20;position=0.42;rotation=90;position2=0.5;rounded=1;base=10;horizontal=0;strokeWidth=2;fillColor=#E6E6E6;" vertex="1" parent="1">
          <mxGeometry x="725" y="1094" width="60" height="100" as="geometry" />
        </mxCell>
        <mxCell id="43bpJHLOXwkWfMs68zJb-146" value="" style="endArrow=none;html=1;rounded=0;dashed=1;strokeWidth=3;strokeColor=#CCCCCC;" edge="1" parent="1" target="43bpJHLOXwkWfMs68zJb-145">
          <mxGeometry width="50" height="50" relative="1" as="geometry">
            <mxPoint x="560" y="1360" as="sourcePoint" />
            <mxPoint x="560" y="40" as="targetPoint" />
          </mxGeometry>
        </mxCell>
        <mxCell id="43bpJHLOXwkWfMs68zJb-145" value="" style="ellipse;whiteSpace=wrap;html=1;aspect=fixed;strokeWidth=2;fillColor=#e51400;fontColor=#ffffff;strokeColor=#B20000;" vertex="1" parent="1">
          <mxGeometry x="550" y="950" width="20" height="20" as="geometry" />
        </mxCell>
        <mxCell id="43bpJHLOXwkWfMs68zJb-147" value="" style="endArrow=classic;html=1;rounded=0;strokeWidth=3;exitX=0.5;exitY=0.5;exitDx=0;exitDy=0;exitPerimeter=0;" edge="1" parent="1" source="43bpJHLOXwkWfMs68zJb-72" target="43bpJHLOXwkWfMs68zJb-145">
          <mxGeometry relative="1" as="geometry">
            <mxPoint x="652.06" y="598.47" as="sourcePoint" />
            <mxPoint x="560" y="900" as="targetPoint" />
          </mxGeometry>
        </mxCell>
        <mxCell id="43bpJHLOXwkWfMs68zJb-148" value="PR" style="edgeLabel;resizable=0;html=1;align=center;verticalAlign=middle;fontSize=14;" connectable="0" vertex="1" parent="43bpJHLOXwkWfMs68zJb-147">
          <mxGeometry relative="1" as="geometry" />
        </mxCell>
        <mxCell id="43bpJHLOXwkWfMs68zJb-149" value="" style="edgeStyle=orthogonalEdgeStyle;rounded=0;orthogonalLoop=1;jettySize=auto;html=1;strokeWidth=3;" edge="1" parent="1" source="43bpJHLOXwkWfMs68zJb-17" target="43bpJHLOXwkWfMs68zJb-53">
          <mxGeometry relative="1" as="geometry">
            <mxPoint x="390" y="122" as="sourcePoint" />
            <mxPoint x="390" y="162" as="targetPoint" />
          </mxGeometry>
        </mxCell>
        <mxCell id="43bpJHLOXwkWfMs68zJb-83" value="1.1.0&lt;br&gt;功能研发" style="shape=callout;whiteSpace=wrap;html=1;perimeter=calloutPerimeter;size=20;position=0.42;rotation=0;position2=0.5;rounded=1;base=10;horizontal=1;strokeWidth=2;direction=south;fillColor=#E6E6E6;" vertex="1" parent="1">
          <mxGeometry x="240" y="134" width="108" height="60" as="geometry" />
        </mxCell>
        <mxCell id="43bpJHLOXwkWfMs68zJb-150" value="" style="edgeStyle=orthogonalEdgeStyle;rounded=0;orthogonalLoop=1;jettySize=auto;html=1;strokeWidth=3;entryX=0.5;entryY=0;entryDx=0;entryDy=0;" edge="1" parent="1" source="43bpJHLOXwkWfMs68zJb-53" target="43bpJHLOXwkWfMs68zJb-59">
          <mxGeometry relative="1" as="geometry">
            <mxPoint x="380" y="110" as="sourcePoint" />
            <mxPoint x="380" y="269" as="targetPoint" />
          </mxGeometry>
        </mxCell>
        <mxCell id="43bpJHLOXwkWfMs68zJb-151" value="" style="edgeStyle=orthogonalEdgeStyle;rounded=0;orthogonalLoop=1;jettySize=auto;html=1;strokeWidth=3;" edge="1" parent="1" source="43bpJHLOXwkWfMs68zJb-59" target="43bpJHLOXwkWfMs68zJb-74">
          <mxGeometry relative="1" as="geometry">
            <mxPoint x="290" y="361" as="sourcePoint" />
            <mxPoint x="290" y="520" as="targetPoint" />
          </mxGeometry>
        </mxCell>
        <mxCell id="43bpJHLOXwkWfMs68zJb-152" value="" style="edgeStyle=orthogonalEdgeStyle;rounded=0;orthogonalLoop=1;jettySize=auto;html=1;strokeWidth=3;" edge="1" parent="1" source="43bpJHLOXwkWfMs68zJb-74" target="43bpJHLOXwkWfMs68zJb-115">
          <mxGeometry relative="1" as="geometry">
            <mxPoint x="380" y="560" as="sourcePoint" />
            <mxPoint x="380" y="800" as="targetPoint" />
          </mxGeometry>
        </mxCell>
        <mxCell id="43bpJHLOXwkWfMs68zJb-97" value="1.1.1&lt;br&gt;功能研发" style="shape=callout;whiteSpace=wrap;html=1;perimeter=calloutPerimeter;size=20;position=0.42;rotation=0;position2=0.5;rounded=1;base=10;horizontal=1;strokeWidth=2;direction=south;fillColor=#E6E6E6;" vertex="1" parent="1">
          <mxGeometry x="222" y="628" width="108" height="60" as="geometry" />
        </mxCell>
        <mxCell id="43bpJHLOXwkWfMs68zJb-153" value="" style="edgeStyle=orthogonalEdgeStyle;rounded=0;orthogonalLoop=1;jettySize=auto;html=1;strokeWidth=3;" edge="1" parent="1" source="43bpJHLOXwkWfMs68zJb-115" target="43bpJHLOXwkWfMs68zJb-108">
          <mxGeometry relative="1" as="geometry">
            <mxPoint x="390" y="610" as="sourcePoint" />
            <mxPoint x="390" y="830" as="targetPoint" />
          </mxGeometry>
        </mxCell>
        <mxCell id="43bpJHLOXwkWfMs68zJb-154" value="" style="edgeStyle=orthogonalEdgeStyle;rounded=0;orthogonalLoop=1;jettySize=auto;html=1;strokeWidth=3;" edge="1" parent="1" source="43bpJHLOXwkWfMs68zJb-108" target="43bpJHLOXwkWfMs68zJb-123">
          <mxGeometry relative="1" as="geometry">
            <mxPoint x="290" y="920" as="sourcePoint" />
            <mxPoint x="290" y="960" as="targetPoint" />
          </mxGeometry>
        </mxCell>
        <mxCell id="43bpJHLOXwkWfMs68zJb-158" value="" style="endArrow=classic;html=1;rounded=0;strokeWidth=3;" edge="1" parent="1" source="43bpJHLOXwkWfMs68zJb-145" target="43bpJHLOXwkWfMs68zJb-160">
          <mxGeometry relative="1" as="geometry">
            <mxPoint x="686.91" y="689.76" as="sourcePoint" />
            <mxPoint x="510" y="980" as="targetPoint" />
          </mxGeometry>
        </mxCell>
        <mxCell id="43bpJHLOXwkWfMs68zJb-159" value="PR" style="edgeLabel;resizable=0;html=1;align=center;verticalAlign=middle;fontSize=14;" connectable="0" vertex="1" parent="43bpJHLOXwkWfMs68zJb-158">
          <mxGeometry relative="1" as="geometry" />
        </mxCell>
        <mxCell id="43bpJHLOXwkWfMs68zJb-161" value="" style="endArrow=none;html=1;rounded=0;dashed=1;strokeWidth=3;strokeColor=#CCCCCC;" edge="1" parent="1" target="43bpJHLOXwkWfMs68zJb-160">
          <mxGeometry width="50" height="50" relative="1" as="geometry">
            <mxPoint x="440" y="1360" as="sourcePoint" />
            <mxPoint x="440" y="982" as="targetPoint" />
          </mxGeometry>
        </mxCell>
        <mxCell id="43bpJHLOXwkWfMs68zJb-160" value="" style="ellipse;whiteSpace=wrap;html=1;aspect=fixed;strokeWidth=2;fillColor=#d5e8d4;strokeColor=#82b366;gradientColor=#97d077;" vertex="1" parent="1">
          <mxGeometry x="430" y="1020" width="20" height="20" as="geometry" />
        </mxCell>
        <mxCell id="43bpJHLOXwkWfMs68zJb-162" value="" style="endArrow=classic;html=1;rounded=0;strokeWidth=3;" edge="1" parent="1" source="43bpJHLOXwkWfMs68zJb-160">
          <mxGeometry relative="1" as="geometry">
            <mxPoint x="410" y="1027" as="sourcePoint" />
            <mxPoint x="440" y="1090" as="targetPoint" />
          </mxGeometry>
        </mxCell>
        <mxCell id="43bpJHLOXwkWfMs68zJb-163" value="修复Bug" style="edgeLabel;resizable=0;html=1;align=center;verticalAlign=middle;fontSize=14;" connectable="0" vertex="1" parent="43bpJHLOXwkWfMs68zJb-162">
          <mxGeometry relative="1" as="geometry">
            <mxPoint y="-6" as="offset" />
          </mxGeometry>
        </mxCell>
        <mxCell id="43bpJHLOXwkWfMs68zJb-157" value="" style="endArrow=none;html=1;rounded=0;dashed=1;strokeWidth=3;strokeColor=#CCCCCC;" edge="1" parent="1" source="43bpJHLOXwkWfMs68zJb-160" target="43bpJHLOXwkWfMs68zJb-156">
          <mxGeometry width="50" height="50" relative="1" as="geometry">
            <mxPoint x="440" y="1280" as="sourcePoint" />
            <mxPoint x="440" y="905" as="targetPoint" />
          </mxGeometry>
        </mxCell>
        <mxCell id="43bpJHLOXwkWfMs68zJb-164" value="" style="edgeStyle=orthogonalEdgeStyle;rounded=0;orthogonalLoop=1;jettySize=auto;html=1;strokeWidth=3;exitX=0.5;exitY=0.4;exitDx=0;exitDy=0;exitPerimeter=0;" edge="1" parent="1" source="43bpJHLOXwkWfMs68zJb-156" target="43bpJHLOXwkWfMs68zJb-160">
          <mxGeometry relative="1" as="geometry">
            <mxPoint x="360" y="940" as="sourcePoint" />
            <mxPoint x="360" y="980" as="targetPoint" />
          </mxGeometry>
        </mxCell>
        <mxCell id="43bpJHLOXwkWfMs68zJb-156" value="" style="ellipse;whiteSpace=wrap;html=1;aspect=fixed;strokeWidth=2;fillColor=#d5e8d4;strokeColor=#82b366;gradientColor=#97d077;" vertex="1" parent="1">
          <mxGeometry x="430" y="962" width="20" height="20" as="geometry" />
        </mxCell>
        <mxCell id="43bpJHLOXwkWfMs68zJb-165" value="" style="ellipse;whiteSpace=wrap;html=1;aspect=fixed;strokeWidth=2;fillColor=#1ba1e2;fontColor=#ffffff;strokeColor=#006EAF;" vertex="1" parent="1">
          <mxGeometry x="670" y="1020" width="20" height="20" as="geometry" />
        </mxCell>
        <mxCell id="43bpJHLOXwkWfMs68zJb-166" value="" style="endArrow=classic;html=1;rounded=0;strokeWidth=3;" edge="1" parent="1" source="43bpJHLOXwkWfMs68zJb-145" target="43bpJHLOXwkWfMs68zJb-165">
          <mxGeometry relative="1" as="geometry">
            <mxPoint x="590" y="960" as="sourcePoint" />
            <mxPoint x="486" y="1038" as="targetPoint" />
          </mxGeometry>
        </mxCell>
        <mxCell id="43bpJHLOXwkWfMs68zJb-167" value="PR" style="edgeLabel;resizable=0;html=1;align=center;verticalAlign=middle;fontSize=14;" connectable="0" vertex="1" parent="43bpJHLOXwkWfMs68zJb-166">
          <mxGeometry relative="1" as="geometry" />
        </mxCell>
        <mxCell id="43bpJHLOXwkWfMs68zJb-168" value="Tag&lt;br&gt;1.1.0.1" style="shape=callout;whiteSpace=wrap;html=1;perimeter=calloutPerimeter;size=20;position=0.42;rotation=90;position2=0.5;rounded=1;base=10;horizontal=0;strokeWidth=2;fillColor=#E6E6E6;" vertex="1" parent="1">
          <mxGeometry x="730" y="980" width="60" height="100" as="geometry" />
        </mxCell>
        <mxCell id="43bpJHLOXwkWfMs68zJb-170" value="" style="ellipse;whiteSpace=wrap;html=1;aspect=fixed;strokeWidth=2;fillColor=#e6d0de;strokeColor=#996185;gradientColor=#d5739d;" vertex="1" parent="1">
          <mxGeometry x="30" y="1083" width="20" height="20" as="geometry" />
        </mxCell>
        <mxCell id="43bpJHLOXwkWfMs68zJb-171" value="" style="endArrow=classic;html=1;rounded=0;strokeWidth=3;" edge="1" parent="1" source="43bpJHLOXwkWfMs68zJb-145" target="43bpJHLOXwkWfMs68zJb-170">
          <mxGeometry relative="1" as="geometry">
            <mxPoint x="562.36" y="980.01" as="sourcePoint" />
            <mxPoint x="460.36" y="1040.01" as="targetPoint" />
          </mxGeometry>
        </mxCell>
        <mxCell id="43bpJHLOXwkWfMs68zJb-172" value="PR" style="edgeLabel;resizable=0;html=1;align=center;verticalAlign=middle;fontSize=14;" connectable="0" vertex="1" parent="43bpJHLOXwkWfMs68zJb-171">
          <mxGeometry relative="1" as="geometry" />
        </mxCell>
        <mxCell id="43bpJHLOXwkWfMs68zJb-173" value="" style="edgeStyle=orthogonalEdgeStyle;rounded=0;orthogonalLoop=1;jettySize=auto;html=1;strokeWidth=3;entryX=0.5;entryY=0;entryDx=0;entryDy=0;" edge="1" parent="1" source="43bpJHLOXwkWfMs68zJb-170" target="43bpJHLOXwkWfMs68zJb-131">
          <mxGeometry relative="1" as="geometry">
            <mxPoint x="-20" y="1094" as="sourcePoint" />
            <mxPoint x="-20" y="1217" as="targetPoint" />
          </mxGeometry>
        </mxCell>
        <mxCell id="43bpJHLOXwkWfMs68zJb-174" value="" style="shape=curlyBracket;whiteSpace=wrap;html=1;rounded=1;flipH=1;labelPosition=right;verticalLabelPosition=middle;align=left;verticalAlign=middle;direction=south;" vertex="1" parent="1">
          <mxGeometry x="40" y="15" width="160" height="20" as="geometry" />
        </mxCell>
        <mxCell id="43bpJHLOXwkWfMs68zJb-72" value="" style="ellipse;whiteSpace=wrap;html=1;aspect=fixed;strokeWidth=2;fillColor=#1ba1e2;fontColor=#ffffff;strokeColor=#006EAF;" vertex="1" parent="1">
          <mxGeometry x="670" y="560" width="20" height="20" as="geometry" />
        </mxCell>
      </root>
    </mxGraphModel>
  </diagram>
</mxfile>
